<mxfile host="app.diagrams.net" modified="2022-03-25T02:36:02.116Z" agent="5.0 (Macintosh; Intel Mac OS X 10_15_7) AppleWebKit/537.36 (KHTML, like Gecko) Chrome/99.0.4844.83 Safari/537.36" etag="bKFMWrC0_D9ZXtNiiOpV" version="16.6.3" type="github">
  <diagram id="wS9bEheT6UiltXXAWt31" name="第 1 页">
    <mxGraphModel dx="1426" dy="826" grid="1" gridSize="10" guides="1" tooltips="1" connect="1" arrows="1" fold="1" page="1" pageScale="1" pageWidth="12000" pageHeight="12000" math="0" shadow="0">
      <root>
        <mxCell id="0" />
        <mxCell id="1" parent="0" />
        <mxCell id="LwtjC8Bvbs0usFyJ0WZU-48" value="" style="rounded=0;dashed=1;fillColor=none;shadow=1;sketch=1;" parent="1" vertex="1">
          <mxGeometry x="560" y="195" width="400" height="420" as="geometry" />
        </mxCell>
        <mxCell id="LwtjC8Bvbs0usFyJ0WZU-61" value="" style="rounded=0;shadow=1;strokeColor=default;fillColor=none;dashed=1;sketch=1;" parent="1" vertex="1">
          <mxGeometry x="575" y="205" width="365" height="100" as="geometry" />
        </mxCell>
        <mxCell id="LwtjC8Bvbs0usFyJ0WZU-47" value="" style="rounded=0;dashed=1;fillColor=none;shadow=1;sketch=1;" parent="1" vertex="1">
          <mxGeometry x="560" y="646" width="400" height="124" as="geometry" />
        </mxCell>
        <mxCell id="LwtjC8Bvbs0usFyJ0WZU-66" value="" style="edgeStyle=orthogonalEdgeStyle;rounded=1;orthogonalLoop=1;jettySize=auto;exitX=0;exitY=0.25;exitDx=0;exitDy=0;entryX=0.989;entryY=0.646;entryDx=0;entryDy=0;entryPerimeter=0;sketch=1;" parent="1" source="LwtjC8Bvbs0usFyJ0WZU-1" target="LwtjC8Bvbs0usFyJ0WZU-51" edge="1">
          <mxGeometry relative="1" as="geometry" />
        </mxCell>
        <mxCell id="LwtjC8Bvbs0usFyJ0WZU-58" value="" style="edgeStyle=orthogonalEdgeStyle;rounded=1;orthogonalLoop=1;jettySize=auto;exitX=0;exitY=0.75;exitDx=0;exitDy=0;entryX=1;entryY=0.75;entryDx=0;entryDy=0;sketch=1;" parent="1" source="LwtjC8Bvbs0usFyJ0WZU-10" target="LwtjC8Bvbs0usFyJ0WZU-57" edge="1">
          <mxGeometry relative="1" as="geometry" />
        </mxCell>
        <mxCell id="LwtjC8Bvbs0usFyJ0WZU-72" value="" style="edgeStyle=orthogonalEdgeStyle;rounded=1;orthogonalLoop=1;jettySize=auto;exitX=0.25;exitY=1;exitDx=0;exitDy=0;entryX=0.345;entryY=-0.02;entryDx=0;entryDy=0;entryPerimeter=0;sketch=1;" parent="1" source="LwtjC8Bvbs0usFyJ0WZU-10" target="LwtjC8Bvbs0usFyJ0WZU-16" edge="1">
          <mxGeometry relative="1" as="geometry">
            <mxPoint x="677" y="615" as="sourcePoint" />
          </mxGeometry>
        </mxCell>
        <mxCell id="LwtjC8Bvbs0usFyJ0WZU-40" value="" style="edgeStyle=orthogonalEdgeStyle;curved=0;rounded=1;orthogonalLoop=1;jettySize=auto;exitX=0;exitY=0.5;exitDx=0;exitDy=0;entryX=0.875;entryY=0.5;entryDx=0;entryDy=0;entryPerimeter=0;sketch=1;dashed=1;" parent="1" source="LwtjC8Bvbs0usFyJ0WZU-16" target="LwtjC8Bvbs0usFyJ0WZU-41" edge="1">
          <mxGeometry relative="1" as="geometry">
            <mxPoint x="290" y="855" as="targetPoint" />
          </mxGeometry>
        </mxCell>
        <mxCell id="LwtjC8Bvbs0usFyJ0WZU-73" value="" style="edgeStyle=orthogonalEdgeStyle;rounded=1;orthogonalLoop=1;jettySize=auto;exitX=0.697;exitY=0;exitDx=0;exitDy=0;entryX=0.5;entryY=1;entryDx=0;entryDy=0;exitPerimeter=0;sketch=1;" parent="1" source="LwtjC8Bvbs0usFyJ0WZU-16" target="LwtjC8Bvbs0usFyJ0WZU-10" edge="1">
          <mxGeometry relative="1" as="geometry">
            <mxPoint x="762" y="615" as="targetPoint" />
          </mxGeometry>
        </mxCell>
        <mxCell id="LwtjC8Bvbs0usFyJ0WZU-16" value="底层服务" style="rounded=0;sketch=1;" parent="1" vertex="1">
          <mxGeometry x="594" y="666" width="240" height="30" as="geometry" />
        </mxCell>
        <mxCell id="LwtjC8Bvbs0usFyJ0WZU-76" value="" style="edgeStyle=orthogonalEdgeStyle;rounded=1;orthogonalLoop=1;jettySize=auto;exitX=0.75;exitY=0;exitDx=0;exitDy=0;sketch=1;entryX=0.75;entryY=1;entryDx=0;entryDy=0;" parent="1" source="LwtjC8Bvbs0usFyJ0WZU-18" target="LwtjC8Bvbs0usFyJ0WZU-10" edge="1">
          <mxGeometry relative="1" as="geometry">
            <mxPoint x="894.94" y="615.6300000000001" as="targetPoint" />
          </mxGeometry>
        </mxCell>
        <mxCell id="LwtjC8Bvbs0usFyJ0WZU-18" value="ElasticSearch" style="rounded=0;sketch=1;" parent="1" vertex="1">
          <mxGeometry x="592" y="706" width="340" height="40" as="geometry" />
        </mxCell>
        <mxCell id="LwtjC8Bvbs0usFyJ0WZU-31" value="" style="edgeStyle=orthogonalEdgeStyle;curved=0;rounded=1;orthogonalLoop=1;jettySize=auto;sketch=1;" parent="1" source="LwtjC8Bvbs0usFyJ0WZU-20" target="LwtjC8Bvbs0usFyJ0WZU-21" edge="1">
          <mxGeometry relative="1" as="geometry" />
        </mxCell>
        <mxCell id="LwtjC8Bvbs0usFyJ0WZU-20" value="Auth" style="rounded=0;sketch=1;" parent="1" vertex="1">
          <mxGeometry x="590" y="223" width="160" height="30" as="geometry" />
        </mxCell>
        <mxCell id="LwtjC8Bvbs0usFyJ0WZU-28" value="" style="edgeStyle=orthogonalEdgeStyle;curved=0;rounded=1;orthogonalLoop=1;jettySize=auto;exitX=0.5;exitY=1;exitDx=0;exitDy=0;entryX=0.228;entryY=0;entryDx=0;entryDy=0;entryPerimeter=0;sketch=1;" parent="1" source="LwtjC8Bvbs0usFyJ0WZU-21" target="LwtjC8Bvbs0usFyJ0WZU-1" edge="1">
          <mxGeometry relative="1" as="geometry" />
        </mxCell>
        <mxCell id="LwtjC8Bvbs0usFyJ0WZU-21" value="Permission" style="rounded=0;sketch=1;" parent="1" vertex="1">
          <mxGeometry x="590" y="268" width="160" height="30" as="geometry" />
        </mxCell>
        <mxCell id="LwtjC8Bvbs0usFyJ0WZU-22" value="field config&#xa;字段权限" style="rounded=0;sketch=1;" parent="1" vertex="1">
          <mxGeometry x="763.5" y="225" width="166.5" height="73" as="geometry" />
        </mxCell>
        <mxCell id="LwtjC8Bvbs0usFyJ0WZU-23" value="" style="shape=flexArrow;endArrow=classic;startArrow=classic;rounded=1;curved=0;entryX=0.5;entryY=1;entryDx=0;entryDy=0;sketch=1;exitX=0.5;exitY=0;exitDx=0;exitDy=0;" parent="1" source="LwtjC8Bvbs0usFyJ0WZU-10" target="LwtjC8Bvbs0usFyJ0WZU-6" edge="1">
          <mxGeometry width="100" height="100" relative="1" as="geometry">
            <mxPoint x="790" y="625" as="sourcePoint" />
            <mxPoint x="850" y="595" as="targetPoint" />
          </mxGeometry>
        </mxCell>
        <mxCell id="LwtjC8Bvbs0usFyJ0WZU-24" value="" style="endArrow=classic;rounded=1;curved=0;entryX=0.5;entryY=0;entryDx=0;entryDy=0;sketch=1;exitX=0.25;exitY=1;exitDx=0;exitDy=0;" parent="1" source="wS5UYNQO0ijmEQ9ymguA-4" target="LwtjC8Bvbs0usFyJ0WZU-20" edge="1">
          <mxGeometry width="50" height="50" relative="1" as="geometry">
            <mxPoint x="668.75" y="179" as="sourcePoint" />
            <mxPoint x="720" y="185" as="targetPoint" />
          </mxGeometry>
        </mxCell>
        <mxCell id="LwtjC8Bvbs0usFyJ0WZU-32" value="" style="endArrow=classic;rounded=1;curved=0;exitX=0.25;exitY=1;exitDx=0;exitDy=0;entryX=0.25;entryY=0;entryDx=0;entryDy=0;sketch=1;" parent="1" source="LwtjC8Bvbs0usFyJ0WZU-1" target="LwtjC8Bvbs0usFyJ0WZU-6" edge="1">
          <mxGeometry width="50" height="50" relative="1" as="geometry">
            <mxPoint x="830" y="545" as="sourcePoint" />
            <mxPoint x="880" y="495" as="targetPoint" />
          </mxGeometry>
        </mxCell>
        <mxCell id="LwtjC8Bvbs0usFyJ0WZU-33" value="" style="endArrow=classic;rounded=1;curved=0;entryX=0.75;entryY=1;entryDx=0;entryDy=0;exitX=0.75;exitY=0;exitDx=0;exitDy=0;sketch=1;" parent="1" source="LwtjC8Bvbs0usFyJ0WZU-6" target="LwtjC8Bvbs0usFyJ0WZU-1" edge="1">
          <mxGeometry width="50" height="50" relative="1" as="geometry">
            <mxPoint x="830" y="615" as="sourcePoint" />
            <mxPoint x="880" y="565" as="targetPoint" />
          </mxGeometry>
        </mxCell>
        <mxCell id="LwtjC8Bvbs0usFyJ0WZU-34" value="" style="endArrow=classic;rounded=1;curved=0;exitX=0.5;exitY=0;exitDx=0;exitDy=0;sketch=1;entryX=0.75;entryY=1;entryDx=0;entryDy=0;" parent="1" source="LwtjC8Bvbs0usFyJ0WZU-22" target="wS5UYNQO0ijmEQ9ymguA-4" edge="1">
          <mxGeometry width="50" height="50" relative="1" as="geometry">
            <mxPoint x="935" y="215" as="sourcePoint" />
            <mxPoint x="846.25" y="179" as="targetPoint" />
          </mxGeometry>
        </mxCell>
        <mxCell id="LwtjC8Bvbs0usFyJ0WZU-35" value="" style="endArrow=classic;rounded=1;curved=0;entryX=0.5;entryY=1;entryDx=0;entryDy=0;sketch=1;exitX=0.75;exitY=0;exitDx=0;exitDy=0;" parent="1" source="LwtjC8Bvbs0usFyJ0WZU-1" target="LwtjC8Bvbs0usFyJ0WZU-22" edge="1">
          <mxGeometry width="50" height="50" relative="1" as="geometry">
            <mxPoint x="935" y="335" as="sourcePoint" />
            <mxPoint x="880" y="415" as="targetPoint" />
          </mxGeometry>
        </mxCell>
        <mxCell id="hp1bt2ULGveFLt5SyZKm-1" style="edgeStyle=orthogonalEdgeStyle;rounded=0;orthogonalLoop=1;jettySize=auto;html=1;exitX=0.55;exitY=0.95;exitDx=0;exitDy=0;exitPerimeter=0;entryX=0.25;entryY=1;entryDx=0;entryDy=0;dashed=1;sketch=1;" edge="1" parent="1" source="LwtjC8Bvbs0usFyJ0WZU-41" target="LwtjC8Bvbs0usFyJ0WZU-18">
          <mxGeometry relative="1" as="geometry">
            <Array as="points">
              <mxPoint x="370" y="766" />
              <mxPoint x="677" y="766" />
            </Array>
          </mxGeometry>
        </mxCell>
        <mxCell id="LwtjC8Bvbs0usFyJ0WZU-41" value="供应商" style="ellipse;shape=cloud;rounded=0;sketch=1;" parent="1" vertex="1">
          <mxGeometry x="304" y="641" width="120" height="80" as="geometry" />
        </mxCell>
        <mxCell id="LwtjC8Bvbs0usFyJ0WZU-49" value="明鉴优选Node" style="text;resizable=0;autosize=1;align=center;verticalAlign=middle;points=[];fillColor=none;strokeColor=none;rounded=0;shadow=1;dashed=1;sketch=1;" parent="1" vertex="1">
          <mxGeometry x="905" y="185" width="90" height="20" as="geometry" />
        </mxCell>
        <mxCell id="LwtjC8Bvbs0usFyJ0WZU-50" value="底层" style="text;resizable=0;autosize=1;align=center;verticalAlign=middle;points=[];fillColor=none;strokeColor=none;rounded=0;shadow=1;dashed=1;sketch=1;" parent="1" vertex="1">
          <mxGeometry x="930" y="636" width="40" height="20" as="geometry" />
        </mxCell>
        <mxCell id="LwtjC8Bvbs0usFyJ0WZU-55" value="" style="edgeStyle=orthogonalEdgeStyle;rounded=1;orthogonalLoop=1;jettySize=auto;exitX=0.25;exitY=1;exitDx=0;exitDy=0;entryX=0;entryY=0.5;entryDx=0;entryDy=0;sketch=1;" parent="1" source="LwtjC8Bvbs0usFyJ0WZU-51" target="LwtjC8Bvbs0usFyJ0WZU-18" edge="1">
          <mxGeometry relative="1" as="geometry" />
        </mxCell>
        <mxCell id="LwtjC8Bvbs0usFyJ0WZU-60" value="" style="edgeStyle=orthogonalEdgeStyle;rounded=1;orthogonalLoop=1;jettySize=auto;exitX=0.75;exitY=1;exitDx=0;exitDy=0;entryX=0.5;entryY=0;entryDx=0;entryDy=0;sketch=1;" parent="1" source="LwtjC8Bvbs0usFyJ0WZU-51" target="LwtjC8Bvbs0usFyJ0WZU-57" edge="1">
          <mxGeometry relative="1" as="geometry" />
        </mxCell>
        <mxCell id="LwtjC8Bvbs0usFyJ0WZU-68" value="" style="edgeStyle=orthogonalEdgeStyle;rounded=1;orthogonalLoop=1;jettySize=auto;exitX=1;exitY=0.75;exitDx=0;exitDy=0;sketch=1;" parent="1" source="LwtjC8Bvbs0usFyJ0WZU-51" target="LwtjC8Bvbs0usFyJ0WZU-1" edge="1">
          <mxGeometry relative="1" as="geometry" />
        </mxCell>
        <mxCell id="LwtjC8Bvbs0usFyJ0WZU-70" value="" style="edgeStyle=orthogonalEdgeStyle;rounded=1;orthogonalLoop=1;jettySize=auto;exitX=1;exitY=0.25;exitDx=0;exitDy=0;entryX=0;entryY=0.442;entryDx=0;entryDy=0;entryPerimeter=0;sketch=1;" parent="1" source="LwtjC8Bvbs0usFyJ0WZU-51" target="LwtjC8Bvbs0usFyJ0WZU-61" edge="1">
          <mxGeometry relative="1" as="geometry" />
        </mxCell>
        <mxCell id="LwtjC8Bvbs0usFyJ0WZU-51" value="数据魔方" style="rounded=0;shadow=1;fillColor=none;strokeColor=default;sketch=1;" parent="1" vertex="1">
          <mxGeometry x="424" y="195" width="88" height="220" as="geometry" />
        </mxCell>
        <mxCell id="LwtjC8Bvbs0usFyJ0WZU-59" value="" style="edgeStyle=orthogonalEdgeStyle;rounded=1;orthogonalLoop=1;jettySize=auto;exitX=1;exitY=0.25;exitDx=0;exitDy=0;entryX=0;entryY=0.25;entryDx=0;entryDy=0;sketch=1;" parent="1" source="LwtjC8Bvbs0usFyJ0WZU-57" target="LwtjC8Bvbs0usFyJ0WZU-10" edge="1">
          <mxGeometry relative="1" as="geometry" />
        </mxCell>
        <mxCell id="LwtjC8Bvbs0usFyJ0WZU-57" value="算法" style="rounded=0;shadow=1;strokeColor=default;fillColor=none;sketch=1;" parent="1" vertex="1">
          <mxGeometry x="460" y="531" width="60" height="65" as="geometry" />
        </mxCell>
        <mxCell id="LwtjC8Bvbs0usFyJ0WZU-71" value="" style="edgeStyle=orthogonalEdgeStyle;rounded=1;orthogonalLoop=1;jettySize=auto;exitX=0;exitY=0.25;exitDx=0;exitDy=0;entryX=0.989;entryY=0.158;entryDx=0;entryDy=0;entryPerimeter=0;sketch=1;" parent="1" source="LwtjC8Bvbs0usFyJ0WZU-61" target="LwtjC8Bvbs0usFyJ0WZU-51" edge="1">
          <mxGeometry relative="1" as="geometry" />
        </mxCell>
        <mxCell id="wS5UYNQO0ijmEQ9ymguA-1" value="" style="group" parent="1" vertex="1" connectable="0">
          <mxGeometry x="592" y="323" width="340" height="70" as="geometry" />
        </mxCell>
        <mxCell id="LwtjC8Bvbs0usFyJ0WZU-1" value="" style="rounded=0;sketch=1;" parent="wS5UYNQO0ijmEQ9ymguA-1" vertex="1">
          <mxGeometry width="340" height="70" as="geometry" />
        </mxCell>
        <mxCell id="LwtjC8Bvbs0usFyJ0WZU-2" value="API" style="text;resizable=0;autosize=1;align=center;verticalAlign=middle;points=[];fillColor=none;strokeColor=none;rounded=0;sketch=1;" parent="wS5UYNQO0ijmEQ9ymguA-1" vertex="1">
          <mxGeometry x="20" y="6" width="30" height="20" as="geometry" />
        </mxCell>
        <mxCell id="LwtjC8Bvbs0usFyJ0WZU-3" value="v1" style="rounded=0;sketch=1;" parent="wS5UYNQO0ijmEQ9ymguA-1" vertex="1">
          <mxGeometry x="12" y="30" width="60" height="30" as="geometry" />
        </mxCell>
        <mxCell id="LwtjC8Bvbs0usFyJ0WZU-4" value="v2" style="rounded=0;sketch=1;" parent="wS5UYNQO0ijmEQ9ymguA-1" vertex="1">
          <mxGeometry x="112" y="30" width="60" height="30" as="geometry" />
        </mxCell>
        <mxCell id="LwtjC8Bvbs0usFyJ0WZU-5" value="admin" style="rounded=0;sketch=1;" parent="wS5UYNQO0ijmEQ9ymguA-1" vertex="1">
          <mxGeometry x="212" y="30" width="60" height="30" as="geometry" />
        </mxCell>
        <mxCell id="wS5UYNQO0ijmEQ9ymguA-2" value="" style="group" parent="1" vertex="1" connectable="0">
          <mxGeometry x="592" y="417" width="340" height="70" as="geometry" />
        </mxCell>
        <mxCell id="LwtjC8Bvbs0usFyJ0WZU-6" value="" style="rounded=0;sketch=1;" parent="wS5UYNQO0ijmEQ9ymguA-2" vertex="1">
          <mxGeometry width="340" height="70" as="geometry" />
        </mxCell>
        <mxCell id="LwtjC8Bvbs0usFyJ0WZU-7" value="MySQL" style="rounded=0;sketch=1;" parent="wS5UYNQO0ijmEQ9ymguA-2" vertex="1">
          <mxGeometry x="10" y="30" width="120" height="30" as="geometry" />
        </mxCell>
        <mxCell id="LwtjC8Bvbs0usFyJ0WZU-8" value="数据存储层" style="text;resizable=0;autosize=1;align=center;verticalAlign=middle;points=[];fillColor=none;strokeColor=none;rounded=0;sketch=1;" parent="wS5UYNQO0ijmEQ9ymguA-2" vertex="1">
          <mxGeometry y="5" width="80" height="20" as="geometry" />
        </mxCell>
        <mxCell id="LwtjC8Bvbs0usFyJ0WZU-9" value="ElasticSearch" style="rounded=0;sketch=1;" parent="wS5UYNQO0ijmEQ9ymguA-2" vertex="1">
          <mxGeometry x="143.5" y="30" width="120" height="30" as="geometry" />
        </mxCell>
        <mxCell id="wS5UYNQO0ijmEQ9ymguA-3" value="" style="group" parent="1" vertex="1" connectable="0">
          <mxGeometry x="592" y="530" width="340" height="70" as="geometry" />
        </mxCell>
        <mxCell id="LwtjC8Bvbs0usFyJ0WZU-10" value="" style="rounded=0;sketch=1;" parent="wS5UYNQO0ijmEQ9ymguA-3" vertex="1">
          <mxGeometry width="340" height="70" as="geometry" />
        </mxCell>
        <mxCell id="LwtjC8Bvbs0usFyJ0WZU-11" value="定时任务(cron)" style="text;resizable=0;autosize=1;align=center;verticalAlign=middle;points=[];fillColor=none;strokeColor=none;rounded=0;sketch=1;" parent="wS5UYNQO0ijmEQ9ymguA-3" vertex="1">
          <mxGeometry x="7" width="90" height="20" as="geometry" />
        </mxCell>
        <mxCell id="LwtjC8Bvbs0usFyJ0WZU-12" value="榜单更新" style="rounded=0;sketch=1;" parent="wS5UYNQO0ijmEQ9ymguA-3" vertex="1">
          <mxGeometry x="13.5" y="30" width="60" height="30" as="geometry" />
        </mxCell>
        <mxCell id="LwtjC8Bvbs0usFyJ0WZU-13" value="前测" style="rounded=0;sketch=1;" parent="wS5UYNQO0ijmEQ9ymguA-3" vertex="1">
          <mxGeometry x="93.5" y="30" width="60" height="30" as="geometry" />
        </mxCell>
        <mxCell id="LwtjC8Bvbs0usFyJ0WZU-14" value="后测" style="rounded=0;sketch=1;" parent="wS5UYNQO0ijmEQ9ymguA-3" vertex="1">
          <mxGeometry x="173.5" y="30" width="60" height="30" as="geometry" />
        </mxCell>
        <mxCell id="LwtjC8Bvbs0usFyJ0WZU-15" value="分钟级" style="rounded=0;sketch=1;" parent="wS5UYNQO0ijmEQ9ymguA-3" vertex="1">
          <mxGeometry x="253.5" y="30" width="60" height="30" as="geometry" />
        </mxCell>
        <mxCell id="wS5UYNQO0ijmEQ9ymguA-7" style="edgeStyle=orthogonalEdgeStyle;rounded=0;orthogonalLoop=1;jettySize=auto;html=0;exitX=0.75;exitY=0;exitDx=0;exitDy=0;entryX=0.75;entryY=1;entryDx=0;entryDy=0;" parent="1" source="wS5UYNQO0ijmEQ9ymguA-4" target="wS5UYNQO0ijmEQ9ymguA-5" edge="1">
          <mxGeometry relative="1" as="geometry" />
        </mxCell>
        <mxCell id="wS5UYNQO0ijmEQ9ymguA-4" value="Java 后端..." style="rounded=1;sketch=1;" parent="1" vertex="1">
          <mxGeometry x="580" y="114" width="355" height="40" as="geometry" />
        </mxCell>
        <mxCell id="wS5UYNQO0ijmEQ9ymguA-6" style="edgeStyle=orthogonalEdgeStyle;rounded=0;orthogonalLoop=1;jettySize=auto;html=0;exitX=0.25;exitY=1;exitDx=0;exitDy=0;entryX=0.25;entryY=0;entryDx=0;entryDy=0;" parent="1" source="wS5UYNQO0ijmEQ9ymguA-5" target="wS5UYNQO0ijmEQ9ymguA-4" edge="1">
          <mxGeometry relative="1" as="geometry" />
        </mxCell>
        <mxCell id="wS5UYNQO0ijmEQ9ymguA-5" value="前端" style="rounded=1;sketch=1;" parent="1" vertex="1">
          <mxGeometry x="581.5" y="60" width="355" height="40" as="geometry" />
        </mxCell>
      </root>
    </mxGraphModel>
  </diagram>
</mxfile>
